<svg aria-hidden="true" style="position: absolute; width: 0; height: 0; overflow: hidden;" version="1.1" xmlns="http://www.w3.org/2000/svg" xmlns:xlink="http://www.w3.org/1999/xlink">
<defs>
<symbol id="close-icon" viewBox="0 0 32 32">
<path d="M18.41 16l12.462-12.461c0.28-0.327 0.426-0.748 0.41-1.178s-0.195-0.838-0.499-1.143c-0.305-0.304-0.712-0.483-1.143-0.499s-0.851 0.13-1.178 0.41l-12.462 12.462-12.462-12.479c-0.327-0.28-0.748-0.426-1.178-0.41s-0.838 0.195-1.143 0.499c-0.304 0.304-0.483 0.713-0.499 1.143s0.13 0.851 0.41 1.178l12.462 12.479-12.479 12.462c-0.179 0.153-0.324 0.342-0.427 0.554s-0.16 0.443-0.169 0.679c-0.009 0.235 0.031 0.47 0.117 0.689s0.216 0.419 0.383 0.585c0.167 0.167 0.366 0.297 0.585 0.383s0.454 0.126 0.69 0.117 0.466-0.067 0.679-0.169c0.212-0.103 0.401-0.248 0.554-0.427l12.479-12.462 12.462 12.462c0.327 0.28 0.748 0.426 1.178 0.41s0.838-0.195 1.143-0.499c0.305-0.304 0.483-0.712 0.499-1.143s-0.13-0.851-0.41-1.178l-12.462-12.462z"></path>
</symbol>
<symbol id="burger-icon" viewBox="0 0 32 32">
<path d="M32 9c0 0.552-0.448 1-1 1h-30c-0.552 0-1-0.448-1-1s0.448-1 1-1h30c0.552 0 1 0.448 1 1zM32 25c0 0.552-0.448 1-1 1h-30c-0.552 0-1-0.448-1-1s0.448-1 1-1h30c0.552 0 1 0.448 1 1zM32 16.992c0 0.548-0.444 0.992-0.992 0.992h-30.016c-0.548 0-0.992-0.444-0.992-0.992s0.444-0.992 0.992-0.992h30.016c0.548 0 0.992 0.444 0.992 0.992z"></path>
</symbol>
<symbol id="form-down-arrow" viewBox="0 0 32 32">
<path d="M17.63 24.734c-0.852 1.010-2.409 1.010-3.261 0l-12.96-15.359c-1.17-1.387-0.184-3.509 1.63-3.509h25.92c1.815 0 2.801 2.122 1.63 3.509l-12.96 15.359z"></path>
</symbol>
<symbol id="form-up-arrow" viewBox="0 0 32 32">
<path d="M14.37 7.266c0.852-1.010 2.409-1.010 3.261 0l12.96 15.359c1.171 1.387 0.185 3.509-1.63 3.509h-25.92c-1.815 0-2.801-2.122-1.63-3.509l12.96-15.359z"></path>
</symbol>
<symbol id="gallery-load-icon" viewBox="0 0 32 32">
<path fill="none" stroke="#487996" style="stroke: var(--color1, #487996)" stroke-linejoin="round" stroke-linecap="round" stroke-miterlimit="4" stroke-width="0.7111" d="M16 5.333v3.048"></path>
<path fill="none" stroke="#487996" style="stroke: var(--color1, #487996)" stroke-linejoin="round" stroke-linecap="round" stroke-miterlimit="4" stroke-width="0.7111" d="M23.619 8.381l-2.286 2.286"></path>
<path fill="none" stroke="#487996" style="stroke: var(--color1, #487996)" stroke-linejoin="round" stroke-linecap="round" stroke-miterlimit="4" stroke-width="0.7111" d="M8.381 8.381l2.286 2.286"></path>
<path fill="none" stroke="#487996" style="stroke: var(--color1, #487996)" stroke-linejoin="round" stroke-linecap="round" stroke-miterlimit="4" stroke-width="0.7111" d="M16 26.667v-3.048"></path>
<path fill="none" stroke="#487996" style="stroke: var(--color1, #487996)" stroke-linejoin="round" stroke-linecap="round" stroke-miterlimit="4" stroke-width="0.7111" d="M23.619 23.619l-2.286-2.286"></path>
<path fill="none" stroke="#487996" style="stroke: var(--color1, #487996)" stroke-linejoin="round" stroke-linecap="round" stroke-miterlimit="4" stroke-width="0.7111" d="M8.381 23.619l2.286-2.286"></path>
<path fill="none" stroke="#487996" style="stroke: var(--color1, #487996)" stroke-linejoin="round" stroke-linecap="round" stroke-miterlimit="4" stroke-width="0.7111" d="M5.333 16h3.048"></path>
<path fill="none" stroke="#487996" style="stroke: var(--color1, #487996)" stroke-linejoin="round" stroke-linecap="round" stroke-miterlimit="4" stroke-width="0.7111" d="M23.619 16h3.048"></path>
</symbol>
<symbol id="gallery-next-arrow" viewBox="0 0 32 32">
<path fill="#fff" style="fill: var(--color2, #fff)" d="M8.381 29.196l13.416-13.196-13.416-13.196 2.072-2.042 15.451 15.246-15.451 15.23-2.072-2.042z"></path>
</symbol>
<symbol id="gallery-prev-arrow" viewBox="0 0 32 32">
<path fill="#fff" style="fill: var(--color2, #fff)" d="M23.619 2.804l-13.416 13.196 13.416 13.196-2.072 2.042-15.451-15.246 15.451-15.23 2.072 2.042z"></path>
</symbol>
<symbol id="paper-clip" viewBox="0 0 32 32">
<path fill="#cdcdcd" style="fill: var(--color3, #cdcdcd)" d="M5.727 30.545c-1.354 0-2.556-0.508-3.606-1.525-1.111-1.075-1.667-2.38-1.667-3.915s0.556-2.84 1.667-3.915l17.424-17.889c0.889-0.88 1.914-1.447 3.076-1.701s2.338-0.186 3.53 0.205c1.192 0.391 2.293 1.065 3.303 2.023 0.323 0.332 0.621 0.699 0.894 1.1s0.495 0.821 0.667 1.261c0.172 0.44 0.303 0.904 0.394 1.393s0.136 0.978 0.136 1.466c-0.040 2.072-0.768 3.803-2.182 5.191l-13.182 13.548c-0.182 0.195-0.404 0.298-0.667 0.308s-0.49-0.073-0.682-0.249c-0.192-0.176-0.293-0.396-0.303-0.66s0.076-0.494 0.258-0.689l13.182-13.548c1.071-1.056 1.616-2.366 1.636-3.93s-0.495-2.845-1.545-3.842c-0.647-0.645-1.364-1.134-2.152-1.466s-1.636-0.44-2.545-0.323c-0.909 0.117-1.717 0.518-2.424 1.202l-17.424 17.889c-0.747 0.724-1.121 1.593-1.121 2.61s0.374 1.887 1.121 2.61c0.343 0.332 0.717 0.582 1.121 0.748s0.828 0.23 1.273 0.191c0.889-0.039 1.717-0.44 2.485-1.202l13.849-14.252c0.101-0.098 0.197-0.2 0.288-0.308s0.187-0.235 0.288-0.381c0.101-0.147 0.182-0.303 0.242-0.469s0.101-0.332 0.121-0.499-0.010-0.337-0.091-0.513c-0.081-0.176-0.202-0.342-0.364-0.499-0.384-0.391-0.758-0.567-1.121-0.528-0.384 0.039-0.818 0.283-1.303 0.733l-10.424 10.733c-0.121 0.117-0.263 0.2-0.424 0.249s-0.328 0.054-0.5 0.015c-0.172-0.039-0.318-0.117-0.439-0.235-0.202-0.176-0.303-0.391-0.303-0.645s0.091-0.479 0.273-0.674l10.424-10.762c0.828-0.782 1.667-1.212 2.515-1.29 0.97-0.078 1.858 0.274 2.667 1.056 0.768 0.723 1.106 1.574 1.015 2.551s-0.581 1.896-1.47 2.757l-13.848 14.282c-1.131 1.095-2.394 1.681-3.788 1.759-0.040 0-0.086 0.005-0.136 0.015s-0.096 0.015-0.136 0.015z"></path>
</symbol>
<symbol id="phone-icon" viewBox="0 0 32 32">
<path fill="#008cef" style="fill: var(--color4, #008cef)" d="M25.64 20.347l-3.387-0.387c-0.398-0.047-0.802-0.003-1.181 0.129s-0.723 0.347-1.006 0.631l-2.453 2.453c-3.785-1.925-6.862-5.002-8.787-8.787l2.467-2.467c0.573-0.573 0.853-1.373 0.76-2.187l-0.387-3.36c-0.076-0.65-0.388-1.25-0.877-1.686s-1.121-0.675-1.776-0.674h-2.307c-1.507 0-2.76 1.253-2.667 2.76 0.707 11.387 9.813 20.48 21.187 21.187 1.507 0.093 2.76-1.16 2.76-2.667v-2.307c0.013-1.347-1-2.48-2.347-2.64z"></path>
</symbol>
<symbol id="section-down-arrow" viewBox="0 0 32 32">
<path fill="#008cef" style="fill: var(--color4, #008cef)" d="M16 2c-0.265 0-0.52 0.105-0.707 0.293s-0.293 0.442-0.293 0.707v23.586l-6.292-6.294c-0.188-0.188-0.442-0.293-0.708-0.293s-0.52 0.105-0.708 0.293c-0.188 0.188-0.293 0.442-0.293 0.708s0.106 0.52 0.293 0.708l8 8c0.093 0.093 0.203 0.167 0.325 0.217s0.252 0.076 0.383 0.076c0.131 0 0.262-0.026 0.383-0.076s0.232-0.124 0.325-0.217l8-8c0.093-0.093 0.167-0.203 0.217-0.325s0.076-0.252 0.076-0.383c0-0.266-0.105-0.52-0.293-0.708s-0.442-0.293-0.708-0.293c-0.265 0-0.52 0.105-0.708 0.293l-6.292 6.294v-23.586c0-0.265-0.105-0.52-0.293-0.707s-0.442-0.293-0.707-0.293z"></path>
</symbol>
</defs>
</svg>
